<?xml version="1.0" encoding="UTF-8"?>
<svg id="Layer_1" xmlns="http://www.w3.org/2000/svg" viewBox="0 0 325.79 111.16">
  <defs>
    <style>
      .cls-1 {
        fill: #fbff52;
      }

      .cls-2 {
        fill: #f7a537;
      }

      .cls-3 {
        fill: #ffd150;
      }

      .cls-4 {
        fill: #ffea52;
      }
    </style>
  </defs>
  <path d="M0,96.27L24.53,29.48h-2.87S16.82,1.38,16.82,1.38l63.1-.3-8.54,95.52-32.85-.16,1.73-13.59h-2.44s-4.49,13.57-4.49,13.57L0,96.27ZM35.36,61.43l12.43-37.73,8.74,1.97-4.52,35.84-16.66-.08Z"/>
  <path d="M81.4,96.56c-1.03-.29-1.99-.63-2.9-1.01-4.33-1.82-7.38-5.05-9.08-9.59-1.51-4.03-1.95-9.13-1.35-15.6.54-5.9,1.86-13.48,3.91-22.51,2.04-8.95,4.17-16.49,6.31-22.4,2.26-6.23,4.99-11.27,8.1-14.98,3.3-3.94,7.27-6.74,11.8-8.3C102.42.7,107.52-.03,113.36,0c6.02.03,10.74.7,14.45,2.07,4.36,1.61,7.49,4.56,9.31,8.77,1.63,3.78,2.18,8.58,1.66,14.66-.07.86-.13,1.64-.19,2.4-.29,3.9-.55,7.28-2.19,14.47l-.8,3.52-30.27-.14c-.29,1.31-.61,2.7-.95,4.19-.27,1.18-.52,2.31-.76,3.39l29.8.14-1.28,5.5c-1.34,5.74-4.12,15.88-6.3,20.33-2.17,4.41-4.85,8.06-7.97,10.86-3.21,2.87-6.97,4.93-11.19,6.13-3.97,1.12-8.57,1.68-13.69,1.66-4.55-.03-8.38-.48-11.59-1.38ZM123.47,10.12c-2.57-.72-5.97-1.1-10.15-1.12-4.82-.02-8.92.54-12.19,1.67-3,1.04-5.57,2.86-7.84,5.58-2.44,2.91-4.64,7.04-6.53,12.28-2.02,5.56-4.03,12.73-6,21.33-1.97,8.65-3.22,15.84-3.73,21.34-.47,5.02-.19,8.93.82,11.62.82,2.19,2.13,3.6,4.15,4.45,2.59,1.1,6.31,1.66,11.05,1.69,4.27.02,8.03-.42,11.19-1.32,2.93-.83,5.43-2.2,7.64-4.18,2.26-2.02,4.24-4.75,5.9-8.12,1.14-2.32,2.82-7.69,4.23-12.91l-14.23-.07c-.13.59-.26,1.2-.4,1.79-.38,1.76-.73,3.36-.89,4.03-.4,1.71-.84,3.05-1.32,4.09-.83,1.76-1.99,2.97-3.46,3.62-1.06.47-2.28.7-3.74.68-2.13-.01-3.83-.66-5.06-1.93-1.77-1.79-1.78-4.36-1.6-6.4.16-1.75.62-4.22,1.4-7.53.73-3.11,1.71-7.4,2.91-12.74,1.22-5.42,2.2-9.74,2.93-12.82.78-3.31,1.47-5.76,2.14-7.49.93-2.45,1.93-3.96,3.22-4.89,1.3-.93,2.85-1.4,4.62-1.39,1.92,0,3.51.56,4.72,1.64,2.25,2.03,1.97,5.14,1.86,6.31-.15,1.56-.54,3.77-1.2,6.74-.07.31-.12.54-.15.73l14.64.07c.83-4.18,1.01-6.57,1.24-9.64.06-.78.12-1.6.2-2.48.38-4.51.06-7.98-.96-10.33-.83-1.92-2.15-3.16-4.16-3.9-.38-.15-.79-.28-1.23-.4Z"/>
  <path d="M119.28,96.83L141.06,1.37l51.19.24-8.76,30.36-16.57-.08-.47,2.13,15.62.07-6.89,30.36-15.61-.08-.52,2.25,19.29.09-7.53,30.36-51.52-.24ZM148.23,10.4l-17.68,77.48,33.22.16,3.07-12.38-19.1-.09,4.67-20.23,15.58.07,2.81-12.38-15.57-.07,4.46-20.11,17.02.08,3.58-12.38-32.06-.15Z"/>
  <path d="M199.32,97.59c-1.46-.41-2.78-.91-3.97-1.51-4.26-2.15-7.16-5.65-8.6-10.41-1.27-4.21-1.48-9.34-.62-15.69.83-6.12,7.72-36.48,9.58-42.18,1.99-6.1,4.51-11.16,7.49-15.04,3.16-4.11,7.09-7.15,11.68-9.04,4.4-1.81,9.96-2.71,16.53-2.68,6.77.03,11.93,1,15.78,2.97,4.28,2.19,7.18,5.68,8.63,10.38h0c1.28,4.19,1.49,9.3.63,15.65-.8,5.95-7.78,36.3-9.7,42.18-1.99,6.08-4.48,11.15-7.41,15.06-3.14,4.2-7.1,7.26-11.77,9.11-4.43,1.75-9.99,2.63-16.53,2.6-4.65-.03-8.53-.48-11.73-1.39ZM240.66,11.09c-2.02-.57-4.98-1.04-9.28-1.05-5.37-.03-9.76.65-13.07,2-3.15,1.3-5.75,3.32-7.96,6.2-2.36,3.07-4.4,7.23-6.07,12.35-1.67,5.12-8.47,35.08-9.22,40.59-.67,4.98-.56,8.98.32,11.89.72,2.37,2,3.95,4.03,4.98,1.71.86,5.13,1.9,11.69,1.93,5.39.02,9.82-.64,13.17-1.97,3.14-1.24,5.72-3.25,7.87-6.14,2.34-3.12,4.38-7.31,6.05-12.45,1.72-5.28,8.61-35.24,9.33-40.59.67-4.96.56-8.94-.32-11.81-.72-2.35-2.03-3.94-4.12-5.01-.58-.3-1.38-.62-2.43-.92ZM213.88,77.32c-1.32-.37-2.22-1.04-2.79-1.63-1.78-1.8-1.79-4.37-1.6-6.41.16-1.74.59-4.18,1.33-7.48.68-3.09,1.64-7.36,2.86-12.8,1.22-5.42,2.2-9.74,2.93-12.82.78-3.31,1.48-5.76,2.14-7.49.93-2.46,1.93-3.96,3.23-4.89,1.3-.93,2.86-1.4,4.62-1.39,2.52,0,4.07,1.04,4.92,1.9,1.84,1.88,1.79,4.48,1.55,6.54-.2,1.7-.65,4.11-1.37,7.37-.69,3.1-1.64,7.36-2.86,12.8-1.22,5.42-2.23,9.75-3,12.88-.81,3.26-1.49,5.66-2.08,7.34-.87,2.47-1.77,3.93-3,4.88-.89.69-2.42,1.51-4.7,1.5-.82,0-1.54-.11-2.16-.29Z"/>
  <path d="M236.59,97.86l8.33-82.21,11.26-13.26,29.82.14,1.69,7.9,5.25-6.63,32.85.16-20.09,94.03-29.08.06-3.47-16.16-3.7,16.12-32.85-.16ZM265.54,11.43l-17.68,77.48,14.41.07,11.15-48.6,10.47,48.7,13.17.06,17.44-76.24-14.41-.07-10.94,47.49-10.44-48.83-13.17-.05Z"/>
  <path d="M154.93,79.5l.51-2.2,15.26.07,4.84-14.55-13.37-15.22.46-2.08,16.2.08,5.1-15.19-46.58-14.73-2.83,12.38c-.27-1.11-.61-2.14-1.03-3.11-1.78-4.13-4.84-7.01-9.11-8.59-3.62-1.34-8.25-2-14.13-2.02-5.71-.03-10.7.68-14.84,2.12-4.43,1.53-8.31,4.26-11.54,8.12-3.04,3.63-5.71,8.57-7.92,14.66-.25.67-.49,1.38-.74,2.1l2.32-25.93L16.81,1.38l-2.86,22.33,4.63,22.45,4.78-2.98L0,96.26l20.74,12.65,11.23-.27,4.39-13.28.69,13.31,32.13.15.53-5.94c1.65,2.15,3.8,3.8,6.44,4.91.89.38,1.83.71,2.84.99,3.15.89,6.89,1.33,11.35,1.35,5,.02,9.51-.52,13.38-1.62,4.13-1.17,7.81-3.19,10.94-5.99,1.36-1.22,2.63-2.6,3.81-4.14l-2.43,10.67,50.4.24,4.37-12.21-15.87-17.57ZM100.73,66.51c.24-1.05.49-2.16.75-3.32.33-1.45.63-2.81.92-4.09l25.01.12-1.69,7.41-24.99-.12Z"/>
  <path d="M279.2,111.06l26.5-13.08,12.21-79.76-32.13-.15-3.38,14.68-3.4-15.92-29.16-.13.96,5.18-1.42,6.23c-1.45-4.43-4.24-7.74-8.32-9.84-3.76-1.93-8.81-2.88-15.43-2.91-6.42-.03-11.86.85-16.17,2.62-4.49,1.85-5.6-5.62-8.69-1.6-2.92,3.8-8.12,19.19-10.06,25.15-1.82,5.57-8.56,35.26-9.36,41.25-.84,6.21-.64,11.23.61,15.35,1.41,4.66,4.24,8.09,8.41,10.18,1.16.59,2.45,1.08,3.88,1.48,3.14.88,6.93,1.33,11.48,1.35,6.4.03,11.84-.82,16.17-2.54,2.12-.84,4.08-1.93,5.88-3.27l2.92,4.72,32.13.15,1.07-4.66,5.95,4.7,9.38.81Z"/>
  <path class="cls-3" d="M39.59,3.61l-17.78-.08,2.64,19.07,7.93.64L7.86,90.03l23.63.11,4.49-13.58,10.79.05-1.74,13.59,23.63.11L76.41,3.79l-36.82-.18ZM43,55.19l10.5-31.86-4.02,31.89-6.48-.03Z"/>
  <path class="cls-3" d="M105.59,56.07c-.53,2.31-1.73,7.9-2.06,9.31-.33,1.4-.67,2.47-1.01,3.21-.35.74-.75,1.21-1.21,1.42-.46.21-1.09.31-1.89.3-.88,0-1.5-.19-1.87-.57-.37-.37-.48-1.32-.34-2.85.14-1.52.57-3.83,1.3-6.92.72-3.09,1.7-7.35,2.92-12.79,1.22-5.43,2.19-9.7,2.92-12.79.72-3.09,1.38-5.39,1.96-6.92.58-1.52,1.13-2.47,1.64-2.84.51-.37,1.17-.55,1.97-.55.8,0,1.39.17,1.75.5.37.33.5,1.18.37,2.54-.12,1.36-.49,3.42-1.11,6.18-.61,2.76.02,1.32-1.15,6.18l23.67.11c1.88-8.23,1.84-10.98,2.28-16.25.44-5.27,0-9.44-1.31-12.5-1.32-3.06-3.57-5.17-6.74-6.34-3.17-1.17-7.48-1.77-12.91-1.79-5.36-.03-9.92.62-13.68,1.91-3.76,1.3-7.03,3.61-9.82,6.94-2.79,3.33-5.22,7.87-7.32,13.63-2.09,5.76-4.15,13.05-6.15,21.86-2.02,8.89-3.29,16.2-3.82,21.93-.53,5.73-.17,10.26,1.08,13.61,1.25,3.35,3.46,5.69,6.61,7.02,3.16,1.33,7.41,2.01,12.77,2.04,4.72.02,8.86-.47,12.43-1.49,3.57-1.02,6.71-2.73,9.42-5.15,2.7-2.42,5.01-5.58,6.93-9.49,1.92-3.91,4.64-13.68,5.96-19.36l-23.59-.11Z"/>
  <path class="cls-3" d="M154.82,69.33l2.6-11.24,15.59.07,4.85-21.37-15.6-.07,2.47-11.12,16.79.08,6.17-21.36-41.62-.2-19.74,86.47,42.38.2,5.3-21.37-19.19-.09Z"/>
  <path class="cls-3" d="M252.95,13.94c-1.07-3.51-3.2-6.08-6.37-7.7-3.17-1.62-7.75-2.45-13.75-2.48-6-.03-10.93.75-14.8,2.34-3.86,1.59-7.14,4.13-9.82,7.62-2.68,3.49-4.94,8.06-6.78,13.7-1.84,5.64-8.64,35.74-9.4,41.38-.76,5.65-.61,10.24.47,13.79,1.07,3.55,3.18,6.11,6.31,7.7,3.14,1.58,7.7,2.39,13.7,2.41,6,.03,10.95-.73,14.85-2.28,3.9-1.55,7.17-4.09,9.82-7.62,2.64-3.53,4.89-8.12,6.73-13.76,1.84-5.64,8.76-35.74,9.51-41.38.76-5.64.6-10.21-.48-13.73Z"/>
  <path class="cls-3" d="M302.29,91.86l19.14-85.24-23.63-.11-7.2,31.25-6.96-32.56-20.75-.1-19.37,86.47,23.63.11,7.43-32.36,6.97,32.43,20.75.1Z"/>
  <path class="cls-2" d="M51.51,39.08l-2.04,16.14-6.48-.03,5.29-16.06c-.71.01-1.42.02-2.12.03-6.59.13-13.18.25-19.77.38L7.86,90.02l23.63.11,4.49-13.58,10.79.05-1.74,13.59,23.63.11,4.61-51.57c-7.25.11-14.51.22-21.77.35Z"/>
  <path class="cls-2" d="M103.53,65.37c-.33,1.4-.67,2.47-1.01,3.21-.35.74-.75,1.21-1.21,1.42-.46.21-1.09.3-1.89.3-.88,0-1.5-.19-1.87-.57-.36-.37-.48-1.32-.34-2.85.14-1.52.57-3.83,1.3-6.92.72-3.09,1.7-7.35,2.92-12.79.76-3.38,1.42-6.3,1.99-8.77-7.85.06-15.71.15-23.56.24-.69,2.63-1.37,5.44-2.06,8.42-2.02,8.89-3.29,16.21-3.82,21.93-.53,5.73-.17,10.26,1.08,13.61,1.25,3.35,3.46,5.68,6.61,7.02,3.16,1.33,7.41,2.01,12.78,2.04,4.72.02,8.86-.47,12.43-1.49,3.57-1.02,6.71-2.73,9.42-5.15,2.7-2.42,5.01-5.58,6.93-9.49,1.92-3.91,4.64-13.68,5.96-19.36l-23.6-.11c-.54,2.31-1.73,7.9-2.07,9.3Z"/>
  <path class="cls-2" d="M110.04,38.37c-.08.34-.16.71-.27,1.13l23.67.11c.11-.47.21-.91.3-1.34-7.9.02-15.8.05-23.7.1Z"/>
  <path class="cls-2" d="M157.42,58.08l15.6.07,4.49-19.79c-13.07-.08-26.15-.11-39.22-.1l-11.94,52.32,42.38.2,5.3-21.37-19.2-.09,2.59-11.24Z"/>
  <path class="cls-2" d="M203.1,38.58c-1.52-.02-3.04-.03-4.56-.04-2.65,11.09-6,26.41-6.52,30.27-.76,5.65-.61,10.24.47,13.79,1.07,3.55,3.17,6.12,6.31,7.7,3.14,1.58,7.7,2.39,13.7,2.41,5.99.03,10.95-.73,14.85-2.28,3.9-1.55,7.17-4.09,9.82-7.62,2.64-3.53,4.89-8.12,6.73-13.76,1.24-3.8,4.78-18.68,7.19-29.73-16-.32-32-.57-48-.75Z"/>
  <path class="cls-2" d="M255.2,39.4l-11.69,52.18,23.63.11,7.43-32.36,6.97,32.43,20.75.1,11.45-50.98c-19.51-.59-39.02-1.09-58.53-1.48Z"/>
  <path class="cls-1" d="M31.94,23.14l1.25-3.4-7.93-.64-2.16-15.62h-1.26s2.64,19.07,2.64,19.07l7.47.6Z"/>
  <path class="cls-1" d="M53.51,23.28l-3.58,28.44h.35s4.02-31.88,4.02-31.88l-10.5,31.85h.35s9.36-28.41,9.36-28.41Z"/>
  <path class="cls-4" d="M45.85,86.7l1.73-13.59-10.79-.05-4.49,13.58-23.16-.11-1.26,3.44,23.63.11,4.49-13.58,10.8.05-1.74,13.59,23.63.11.31-3.44-23.15-.11Z"/>
  <path class="cls-1" d="M105.62,56.01h-.02c-.35,1.5-.98,4.41-1.47,6.64.07-.25.13-.5.19-.78.21-.9.78-3.5,1.3-5.86Z"/>
  <path class="cls-1" d="M100.18,52.7c-.32,1.4-.61,2.66-.87,3.77-.18.75-.33,1.45-.48,2.11.39-1.67.84-3.63,1.35-5.88Z"/>
  <path class="cls-4" d="M124.03,72.04c-1.92,3.9-4.23,7.07-6.93,9.49-2.7,2.42-5.84,4.13-9.42,5.15-3.57,1.01-7.72,1.51-12.44,1.49-5.36-.02-9.62-.71-12.77-2.04-3.16-1.33-5.36-3.68-6.61-7.02-1.25-3.34-1.61-7.88-1.08-13.61.5-5.39,1.66-12.18,3.47-20.37-.14.62-.29,1.24-.43,1.88-2.02,8.89-3.29,16.2-3.82,21.93-.53,5.73-.17,10.26,1.08,13.61,1.25,3.34,3.46,5.69,6.61,7.02,3.16,1.33,7.41,2.01,12.77,2.04,4.72.02,8.86-.47,12.43-1.49,3.57-1.02,6.71-2.73,9.42-5.15,2.7-2.42,5.01-5.58,6.93-9.49,1.92-3.9,4.64-13.68,5.96-19.36h-.06c-1.44,5.59-3.54,12.72-5.11,15.92Z"/>
  <path class="cls-1" d="M110.58,36c1.17-4.86.53-3.42,1.15-6.18.61-2.76.98-4.82,1.11-6.18.12-1.36,0-2.21-.37-2.54-.37-.33-.95-.5-1.75-.5-.8,0-1.46.18-1.97.55-.52.37-1.06,1.31-1.64,2.84-.58,1.53-1.23,3.83-1.96,6.92-.45,1.91-1,4.28-1.64,7.09.31-1.36.6-2.58.85-3.65.72-3.09,1.38-5.39,1.96-6.92.58-1.52,1.13-2.47,1.64-2.84.52-.37,1.17-.55,1.97-.55.8,0,1.39.17,1.75.5.37.33.49,1.18.37,2.54-.12,1.36-.49,3.42-1.11,6.18-.61,2.76.02,1.32-1.15,6.18l23.66.11c.29-1.27.53-2.4.74-3.44l-23.62-.11Z"/>
  <path class="cls-1" d="M181.54,25.62l6.17-21.37h-.21s-5.18,17.92-5.18,17.92l-16.79-.08-.76,3.44,16.77.08Z"/>
  <path class="cls-4" d="M155.62,65.82h.01s1.8-7.8,1.8-7.8l15.59.07.79-3.44-15.59-.07-2.6,11.24Z"/>
  <path class="cls-4" d="M169.52,87.28l-42.37-.2L146.09,4.06l-19.73,86.47,42.37.2,5.3-21.37h-.07s-4.45,17.92-4.45,17.92Z"/>
  <path class="cls-4" d="M244.71,65.55c-1.84,5.64-4.08,10.22-6.73,13.76-2.65,3.53-5.92,6.07-9.82,7.62-3.91,1.55-8.85,2.31-14.85,2.28-5.99-.03-10.56-.83-13.7-2.41-3.14-1.58-5.24-4.15-6.31-7.7-1.07-3.55-1.23-8.15-.47-13.79.38-2.82,2.27-11.76,4.3-20.7-2.3,9.97-4.65,20.96-5.08,24.14-.76,5.65-.61,10.24.47,13.79,1.07,3.55,3.18,6.11,6.31,7.7,3.14,1.58,7.7,2.39,13.7,2.41,5.99.03,10.95-.73,14.85-2.28,3.9-1.55,7.17-4.09,9.82-7.62,2.64-3.53,4.89-8.12,6.73-13.76,1.02-3.13,3.6-13.77,5.83-23.6-2.02,8.76-4.14,17.4-5.04,20.16Z"/>
  <path class="cls-4" d="M303.08,88.36l-20.74-.1-6.97-32.43-7.42,32.36-23.64-.11,18.6-83.03h-.02s-19.37,86.47-19.37,86.47l23.63.11,7.43-32.36,6.97,32.43,20.75.09.77-3.44Z"/>
  <path d="M241.07,45.59c2.45-12.26-12.19-28.57-12.19-28.57,0,0-21.02,15.58-23.46,27.84-1.51,7.56,1.78,13.79,7.35,13.91,2.65.06,5.33-1.29,7.59-3.53l-15.53,18.08,26.62-.06-9.3-17.98c1.35,2.31,3.47,3.75,6.12,3.81,5.57.11,11.3-5.93,12.82-13.5Z"/>
</svg>